<?xml version="1.0" standalone="no"?>
<!DOCTYPE svg PUBLIC "-//W3C//DTD SVG 20010904//EN"
 "http://www.w3.org/TR/2001/REC-SVG-20010904/DTD/svg10.dtd">
<svg version="1.0" xmlns="http://www.w3.org/2000/svg"
 width="512.000000pt" height="512.000000pt" viewBox="0 0 512.000000 512.000000"
 preserveAspectRatio="xMidYMid meet">

<g transform="translate(0.000000,512.000000) scale(0.100000,-0.100000)"
fill="white" stroke="none">
<path d="M1066 5024 c-34 -11 -64 -31 -102 -68 -92 -93 -84 140 -84 -2396 0
-2533 -8 -2303 83 -2394 93 -93 -1 -87 1297 -84 l1135 3 50 27 c59 31 94 67
126 128 l24 45 3 937 2 937 258 3 c256 3 257 3 307 30 59 31 94 67 126 128
l24 45 3 735 c3 847 7 806 -84 897 -76 77 -106 83 -396 83 l-238 0 0 359 c0
422 -2 433 -86 518 -88 89 1 83 -1278 82 -967 0 -1128 -2 -1170 -15z m665
-281 c24 -97 41 -145 56 -160 l22 -23 424 0 c390 0 427 1 446 18 15 12 34 60
61 157 22 77 40 141 40 143 0 2 133 2 295 0 l295 -3 32 -33 33 -32 3 -365 3
-365 -559 0 c-648 0 -631 2 -718 -84 -88 -88 -84 -50 -84 -876 0 -825 -3 -788
83 -874 56 -56 126 -86 198 -86 l39 0 0 -215 c0 -216 0 -216 25 -240 16 -16
35 -25 57 -25 29 0 57 25 273 240 l241 240 222 0 222 0 -2 -925 -3 -925 -33
-32 -32 -33 -1130 0 -1130 0 -32 33 -33 32 0 2249 0 2249 25 27 c14 15 34 31
45 35 11 5 147 9 301 9 l282 1 33 -137z m874 110 c-3 -16 -13 -52 -21 -80
l-15 -53 -333 0 -334 0 -20 80 -20 80 375 0 375 0 -7 -27z m1517 -971 l33 -32
0 -730 0 -730 -33 -32 -32 -33 -585 -5 -585 -5 -180 -180 -180 -180 0 156 c0
205 2 202 -144 209 -103 5 -107 6 -138 38 l-33 32 0 729 0 729 25 27 c14 15
34 31 45 36 11 4 415 7 897 6 l878 -2 32 -33z"/>
<path d="M1865 455 c-16 -15 -25 -36 -25 -55 0 -19 9 -40 25 -55 l24 -25 351
0 351 0 24 25 c16 15 25 36 25 55 0 19 -9 40 -25 55 l-24 25 -351 0 -351 0
-24 -25z"/>
<path d="M2560 3347 c-49 -16 -133 -102 -148 -153 -28 -94 -8 -169 63 -239 51
-52 102 -75 165 -75 63 0 114 23 165 75 98 97 101 222 8 325 -65 72 -158 97
-253 67z m135 -172 c16 -15 25 -36 25 -55 0 -19 -9 -40 -25 -55 -15 -16 -36
-25 -55 -25 -19 0 -40 9 -55 25 -16 15 -25 36 -25 55 0 19 9 40 25 55 15 16
36 25 55 25 19 0 40 -9 55 -25z"/>
<path d="M3120 3347 c-49 -16 -133 -102 -148 -153 -28 -94 -8 -169 63 -239 51
-52 102 -75 165 -75 63 0 114 23 165 75 98 97 101 222 8 325 -65 72 -158 97
-253 67z m135 -172 c16 -15 25 -36 25 -55 0 -19 -9 -40 -25 -55 -15 -16 -36
-25 -55 -25 -19 0 -40 9 -55 25 -16 15 -25 36 -25 55 0 19 9 40 25 55 15 16
36 25 55 25 19 0 40 -9 55 -25z"/>
<path d="M3680 3347 c-49 -16 -133 -102 -148 -153 -28 -94 -8 -169 63 -239 51
-52 102 -75 165 -75 63 0 114 23 165 75 98 97 101 222 8 325 -65 72 -158 97
-253 67z m135 -172 c16 -15 25 -36 25 -55 0 -19 -9 -40 -25 -55 -15 -16 -36
-25 -55 -25 -19 0 -40 9 -55 25 -16 15 -25 36 -25 55 0 19 9 40 25 55 15 16
36 25 55 25 19 0 40 -9 55 -25z"/>
</g>
</svg>
